# xmcd CD database file
#
# Track frame offsets:
#	225
#	19865
#	30846
#	49349
#	63286
#	76115
#	92880
#	107533
#	121990
#	131008
#	143477
#	156432
#	169250
#
# Disc length: 2407 seconds
#
# Revision: 0
# Processed by: cddbd v1.4PL0 Copyright (c) Steve Scherf et al.
# Submitted via: CDex 1.50
#
DISCID=a209640d
DTITLE=Gary Stewart - Best of the Hightone Years
DYEAR=2002
DGENRE=Country
TTITLE0=Rainin' Rainin' Rainin'
TTITLE1=Brand New Whiskey
TTITLE2=Nothin' But A Woman
TTITLE3=Make It A Double
TTITLE4=I'm A Texan
TTITLE5=An Empty Glass
TTITLE6=Nothin' Cheap About A Cheap Affair
TTITLE7=Bedroom Battleground
TTITLE8=I Get Drunk
TTITLE9=Delia
TTITLE10=Honky Tonk Hardwood Floor
TTITLE11=Cone On In
TTITLE12=Let's Go Jukin'
EXTD=YEAR: 2002
EXTT0=
EXTT1=
EXTT2=
EXTT3=
EXTT4=
EXTT5=
EXTT6=
EXTT7=
EXTT8=
EXTT9=
EXTT10=
EXTT11=
EXTT12=
PLAYORDER=
